<?xml version="1.0" encoding="utf-8"?>
<!-- Generator: Adobe Illustrator 25.2.3, SVG Export Plug-In . SVG Version: 6.00 Build 0)  -->
<svg version="1.1" id="Слой_1" xmlns="http://www.w3.org/2000/svg" xmlns:xlink="http://www.w3.org/1999/xlink" x="0px" y="0px"
	 viewBox="0 0 188 60" style="enable-background:new 0 0 188 60;" xml:space="preserve">
<style type="text/css">
	.st0{fill-rule:evenodd;clip-rule:evenodd;fill:#FFFFFF;}
	.st1{fill:none;stroke:#D8D9D9;stroke-width:0.5;stroke-miterlimit:10;}
	.st2{fill-rule:evenodd;clip-rule:evenodd;fill:#F24129;}
	.st3{fill-rule:evenodd;clip-rule:evenodd;fill:#1A1A18;}
</style>
<rect x="0.6" y="2.4" class="st0" width="55.3" height="55.3"/>
<rect x="0.6" y="2.4" class="st1" width="55.3" height="55.3"/>
<rect x="40" y="8.3" class="st2" width="9.9" height="43.4"/>
<path class="st3" d="M181.2,17.3c-1.9,0-3.2-1.5-3.2-3.2s1.3-3.2,3.2-3.2s3.2,1.5,3.2,3.2C184.4,15.9,183.1,17.3,181.2,17.3
	 M181.2,20.3c3.9,0,6.7-2.7,6.7-6.1s-2.9-6.1-6.7-6.1c-3.9,0-6.7,2.7-6.7,6.1S177.3,20.3,181.2,20.3z M142.2,15.5l1.4-3.3l1.4,3.3
	H142.2z M136.6,20.1h3.6l0.9-2.1h4.8l0.9,2.1h3.7l-5.3-11.9h-3.3L136.6,20.1z M94.8,13.9v-2.8H97c1.2,0,1.9,0.5,1.9,1.4
	s-0.7,1.4-1.9,1.4C97,13.9,94.8,13.9,94.8,13.9z M91.3,20h3.5v-3.6h1.5l2.5,3.6h4l-3-4.1c1.6-0.6,2.6-1.8,2.6-3.6
	c0-1.2-0.4-2.1-1.1-2.8c-0.8-0.8-2.2-1.3-4.1-1.3h-5.9V20z M83.2,17.3c-1.9,0-3.2-1.5-3.2-3.2s1.3-3.2,3.2-3.2
	c1.9,0,3.2,1.5,3.2,3.2C86.4,15.9,85.1,17.3,83.2,17.3z M83.2,20.3c3.9,0,6.7-2.7,6.7-6.1S87,8.1,83.2,8.1c-3.9,0-6.7,2.7-6.7,6.1
	S79.3,20.3,83.2,20.3z M167.1,20h3.5v-8.9h3.7V8.3h-10.9v2.9h3.7V20z M156.5,20.3c3.5,0,5.8-1.7,5.8-5.5V8.3h-3.5v6.6
	c0,1.6-0.9,2.4-2.3,2.4c-1.4,0-2.3-0.8-2.3-2.5V8.3h-3.5v6.6C150.8,18.6,153,20.3,156.5,20.3z M132.4,16.2h3.6l1.3-2.8h-4.9
	L132.4,16.2L132.4,16.2z M116.9,20h3.4v-6.7l3.2,4.6h0.1l3.2-4.6V20h3.4V8.3h-3.7l-3,4.6l-3-4.6h-3.7L116.9,20L116.9,20z
	 M109.4,20.3c3.5,0,5.8-1.7,5.8-5.5V8.3h-3.5v6.6c0,1.6-0.9,2.4-2.3,2.4s-2.3-0.8-2.3-2.5V8.3h-3.5v6.6
	C103.6,18.6,105.8,20.3,109.4,20.3z M65.7,20h3.5v-3.6h5.9v-2.7h-5.9v-2.6h6.5V8.3h-10V20z M160.3,43.8c0.8,0,1.4-0.6,1.6-1.3
	l-0.6-0.1c-0.1,0.5-0.4,0.8-1,0.8c-0.5,0-0.8-0.3-1-0.8l-0.6,0.1C158.9,43.3,159.5,43.8,160.3,43.8z M157.2,52h0.8l4.5-6.3V52h0.8
	v-7.6h-0.8l-4.5,6.3v-6.3h-0.9L157.2,52L157.2,52z M150.2,52h5.5v-0.8H151v-2.7h4.1v-0.8H151v-2.6h4.6v-0.8h-5.5L150.2,52L150.2,52z
	 M145.5,52h0.9v-6.8h2.6v-0.8h-6v0.8h2.6V52H145.5z M139.2,52.2c1.4,0,2.2-0.5,3-1.3l-0.6-0.6c-0.7,0.7-1.4,1.1-2.5,1.1
	c-1.7,0-2.9-1.4-2.9-3.1c0-1.8,1.3-3.1,2.9-3.1c1,0,1.7,0.4,2.4,1l0.6-0.6c-0.8-0.7-1.6-1.2-2.9-1.2c-2.2,0-3.8,1.8-3.8,3.9
	C135.4,50.4,137.1,52.2,139.2,52.2z M129,49.3l1.7-3.9l1.7,3.9H129z M126.9,52h0.9l0.9-2h4.1l0.9,2h0.9l-3.5-7.7h-0.8L126.9,52z
	 M124.8,52h0.9v-7.6h-0.9V48c-0.6,0.4-1.5,0.7-2.3,0.7c-1.1,0-1.7-0.6-1.7-1.6v-2.7H120v2.9c0,1.5,1,2.2,2.5,2.2
	c0.7,0,1.8-0.4,2.4-0.7L124.8,52L124.8,52z M112.4,52h0.9v-6.8h4.3V52h0.9v-7.6h-6V52H112.4z M105.6,49.3l1.7-3.9l1.7,3.9H105.6z
	 M103.5,52h0.9l0.9-2h4.1l0.9,2h0.9l-3.5-7.7H107L103.5,52z M100.1,52.2c1.6,0,2.7-1,2.7-2.2c0-1-0.7-1.6-1.6-1.9
	c0.7-0.2,1.4-0.8,1.4-1.8c0-1.2-1.1-2-2.6-2c-1.2,0-2,0.4-2.8,1l0.5,0.6c0.7-0.6,1.4-0.9,2.2-0.9c1,0,1.7,0.6,1.7,1.4
	c0,0.9-0.8,1.4-1.9,1.4H99v0.7h0.8c1.2,0,2.1,0.4,2.1,1.4c0,0.9-0.8,1.5-1.8,1.5c-1.1,0-1.9-0.4-2.7-1.1l-0.5,0.6
	C97.8,51.8,98.8,52.2,100.1,52.2z M92.2,51.4c-1.7,0-3-1.4-3-3.1c0-1.7,1.2-3.1,3-3.1c1.7,0,3,1.4,3,3.1S93.9,51.4,92.2,51.4z
	 M92.2,52.2c2.3,0,3.9-1.8,3.9-3.9c0-2.1-1.6-3.9-3.9-3.9s-3.9,1.8-3.9,3.9C88.3,50.4,89.9,52.2,92.2,52.2z M83.9,52h0.9v-6.8h2.6
	v-0.8h-6v0.8H84L83.9,52L83.9,52z M75.2,47.8v-2.6h2.3c1.1,0,1.7,0.5,1.7,1.2c0,0.9-0.7,1.4-1.7,1.4C77.5,47.8,75.2,47.8,75.2,47.8z
	 M75.2,51.3v-2.7h2.4c1.3,0,2,0.5,2,1.3c0,0.9-0.7,1.4-1.9,1.4H75.2z M74.4,52h3.4c1.7,0,2.8-0.8,2.8-2.1c0-1.1-0.7-1.6-1.6-1.9
	c0.6-0.3,1.2-0.8,1.2-1.8c0-0.5-0.2-0.9-0.5-1.2c-0.4-0.4-1.1-0.7-2-0.7h-3.2V52H74.4z M67.6,49.3l1.7-3.9l1.7,3.9H67.6z M65.5,52
	h0.9l0.9-2h4.1l0.9,2h0.9l-3.5-7.7h-0.8L65.5,52z M180.2,37.7h0.8l4.5-6.3v6.3h0.8v-7.6h-0.8l-4.5,6.3v-6.3h-0.9L180.2,37.7
	L180.2,37.7z M172.7,37.7h0.9v-2l1.6-1.6l2.9,3.7h1.1l-3.4-4.3l3.3-3.3H178l-4.4,4.5v-4.5h-0.9L172.7,37.7L172.7,37.7z M166,33.5
	v-2.6h2.3c1.1,0,1.7,0.5,1.7,1.2c0,0.9-0.7,1.4-1.7,1.4H166z M166,36.9v-2.7h2.4c1.3,0,2,0.5,2,1.3c0,0.9-0.7,1.4-1.9,1.4H166z
	 M165.1,37.7h3.4c1.7,0,2.8-0.8,2.8-2.1c0-1.1-0.7-1.6-1.6-1.9c0.6-0.3,1.2-0.8,1.2-1.8c0-0.5-0.2-0.9-0.5-1.2
	c-0.4-0.4-1.1-0.7-2-0.7h-3.2L165.1,37.7L165.1,37.7z M158.3,34.9L160,31l1.7,3.9H158.3z M156.2,37.7h0.9l0.9-2h4.1l0.9,2h0.9
	l-3.5-7.7h-0.8L156.2,37.7z M152.1,37.7h0.9v-6.8h2.6v-0.8h-6v0.8h2.6v6.8H152.1z M145.9,37.8c1.4,0,2.2-0.5,3-1.3l-0.6-0.6
	c-0.7,0.7-1.4,1.1-2.5,1.1c-1.7,0-2.9-1.4-2.9-3.1c0-1.8,1.3-3.1,2.9-3.1c1,0,1.7,0.4,2.4,1l0.6-0.6c-0.8-0.7-1.6-1.2-2.9-1.2
	c-2.2,0-3.8,1.8-3.8,3.9C142.1,36.1,143.7,37.8,145.9,37.8z M137.1,37c-1.7,0-3-1.4-3-3.1c0-1.7,1.2-3.1,3-3.1c1.7,0,3,1.4,3,3.1
	C140,35.7,138.8,37,137.1,37z M137,37.8c2.3,0,3.9-1.8,3.9-3.9S139.3,30,137,30c-2.3,0-3.9,1.8-3.9,3.9
	C133.2,36,134.7,37.8,137,37.8z M125.7,37.7h0.9v-6.8h4.3v6.8h0.9v-7.6h-6L125.7,37.7L125.7,37.7z M115.5,37.7h5.5v-0.8h-4.7v-2.7
	h4.1v-0.8h-4.1v-2.6h4.6V30h-5.5L115.5,37.7L115.5,37.7z M112.8,37.7h0.9v-7.6h-0.9V37.7z M106.9,36.9v-3.1h2c1.3,0,2,0.5,2,1.5
	c0,1.1-0.8,1.6-2,1.6H106.9z M106.1,37.7h2.9c1.7,0,2.8-0.9,2.8-2.4c0-1.6-1.3-2.2-3-2.2h-1.9v-2.9H106L106.1,37.7L106.1,37.7z
	 M99.4,33.5v-2.6h2.3c1.1,0,1.7,0.5,1.7,1.2c0,0.9-0.7,1.4-1.7,1.4H99.4z M99.4,36.9v-2.7h2.4c1.3,0,2,0.5,2,1.3
	c0,0.9-0.7,1.4-1.9,1.4H99.4z M98.5,37.7h3.4c1.7,0,2.8-0.8,2.8-2.1c0-1.1-0.7-1.6-1.6-1.9c0.6-0.3,1.2-0.8,1.2-1.8
	c0-0.5-0.2-0.9-0.5-1.2c-0.4-0.4-1.1-0.7-2-0.7h-3.2v7.7H98.5z M93.2,37c-1.7,0-3-1.4-3-3.1c0-1.7,1.2-3.1,3-3.1c1.7,0,3,1.4,3,3.1
	C96.1,35.7,94.9,37,93.2,37z M93.1,37.8c2.3,0,3.9-1.8,3.9-3.9S95.4,30,93.1,30s-3.9,1.8-3.9,3.9C89.3,36,90.8,37.8,93.1,37.8z
	 M84.9,37.7h0.9v-6.8h2.6v-0.8h-6v0.8H85L84.9,37.7L84.9,37.7z M75.1,37.7H76v-6.8h4.3v6.8H81v-7.6h-6L75.1,37.7L75.1,37.7z
	 M69.7,37c-1.7,0-3-1.4-3-3.1c0-1.7,1.2-3.1,3-3.1c1.7,0,3,1.4,3,3.1C72.7,35.7,71.4,37,69.7,37z M69.7,37.8c2.3,0,3.9-1.8,3.9-3.9
	S72,30,69.7,30s-3.9,1.8-3.9,3.9C65.8,36,67.4,37.8,69.7,37.8z M40,8.3v9.9H22.5l0,0c-0.1,0-0.2,0-0.3,0c-3.1,0-5.9,2.8-5.9,5.9v0.1
	c0,0.1,0,0.1,0,0.2V30H40v9.9H16.3v11.8H6.5V24c-0.1-5.7,3-10.6,7.5-13.4c0.9-0.6,1.9-1,2.9-1.4c1.4-0.5,2.9-0.8,4.5-0.9
	c3.8,0,12,0,15.7,0C38.9,8.3,38.2,8.3,40,8.3z"/>
</svg>
