<svg width="1921" height="425" viewBox="0 0 1921 425" fill="none" xmlns="http://www.w3.org/2000/svg">
<path d="M1921 0H0V425H1921V0Z" fill="white"/>
<path d="M408.085 259.384H192.08V264.892H408.085V259.384Z" fill="#D40A26"/>
<path d="M259.891 192.522C259.891 205.059 249.605 215.126 237.224 215.126C224.843 215.126 214.557 204.869 214.557 192.522C214.557 180.176 224.843 169.919 237.224 169.919C249.605 169.919 259.891 179.986 259.891 192.522ZM299.511 230.322L280.082 179.796C274.558 161.181 257.415 147.695 237.034 147.695C212.271 147.505 192.08 167.639 192.08 192.522C192.08 217.215 212.271 237.35 237.034 237.35C251.51 237.35 264.082 230.512 272.273 220.255L276.082 230.322H299.511Z" fill="#191A48"/>
<path d="M369.037 192.522C369.037 205.059 358.941 215.126 346.369 215.126C333.988 215.126 323.702 205.059 323.702 192.522C323.702 179.986 333.988 169.919 346.369 169.919C358.941 169.919 369.037 180.176 369.037 192.522ZM408.085 229.942L366.37 114.834H343.131L355.513 148.455C352.465 147.885 349.227 147.505 345.989 147.505C321.226 147.505 301.035 167.639 301.035 192.522C301.035 217.216 321.226 237.35 345.989 237.35C360.465 237.35 373.227 230.512 381.418 219.875L385.037 229.942H408.085Z" fill="#191A48"/>
<path d="M341.227 137.058L333.036 114.834H271.511L279.511 137.058H341.227Z" fill="#191A48"/>
<path d="M268.273 287.116V309.909H263.701V287.116H268.273ZM266.368 287.116H271.13C272.844 287.116 274.368 287.496 275.701 288.065C277.035 288.635 277.987 289.585 278.559 290.535C279.321 291.674 279.511 292.814 279.511 294.334C279.511 295.853 279.13 296.993 278.559 298.133C277.797 299.272 276.844 300.032 275.701 300.602C274.368 301.172 272.844 301.552 271.13 301.552H266.368V297.753H270.939C271.701 297.753 272.463 297.563 273.035 297.373C273.606 297.183 274.178 296.803 274.368 296.233C274.749 295.663 274.94 295.094 274.94 294.334C274.94 293.574 274.749 293.004 274.368 292.434C273.987 291.864 273.606 291.485 273.035 291.295C272.463 291.105 271.701 290.915 270.939 290.915H266.368V287.116ZM273.606 299.272L281.035 309.909H275.511L268.654 299.272H273.606Z" fill="#191A48"/>
<path d="M294.559 287.116V302.122C294.559 303.451 294.94 304.401 295.511 305.351C296.273 306.11 297.226 306.49 298.559 306.49C299.892 306.49 300.845 306.11 301.607 305.351C302.369 304.591 302.559 303.451 302.559 302.122V287.116H307.131V302.501C307.131 303.831 306.94 304.971 306.559 306.11C306.178 307.06 305.607 308.01 304.654 308.77C303.892 309.529 302.94 309.909 301.797 310.289C300.654 310.669 299.511 310.859 298.368 310.859C297.035 310.859 295.892 310.669 294.94 310.289C293.797 309.909 293.035 309.34 292.273 308.77C291.511 308.01 290.94 307.25 290.368 306.11C289.987 305.161 289.797 303.831 289.797 302.501V287.116H294.559Z" fill="#191A48"/>
<path d="M321.988 304.591C322.559 305.161 323.131 305.731 323.893 306.11C324.655 306.49 325.417 306.68 326.179 306.68C327.131 306.68 327.893 306.49 328.464 305.921C329.036 305.351 329.417 304.781 329.417 304.021C329.417 303.261 329.226 302.691 328.845 302.312C328.464 301.932 327.893 301.552 327.321 301.172C326.75 300.792 325.798 300.412 324.655 300.032C324.083 299.842 323.512 299.652 322.75 299.272C321.988 298.892 321.417 298.513 320.845 297.943C320.274 297.373 319.702 296.803 319.321 296.043C318.94 295.283 318.75 294.334 318.75 293.194C318.75 291.864 319.131 290.725 319.702 289.775C320.274 288.825 321.226 288.065 322.369 287.496C323.512 286.926 324.845 286.736 326.179 286.736C327.702 286.736 328.845 286.926 329.988 287.496C330.941 288.065 331.893 288.635 332.655 289.395C333.417 290.155 333.988 290.915 334.369 291.674L330.75 293.764C330.369 293.194 330.179 292.814 329.607 292.244C329.036 291.674 328.655 291.485 328.083 291.105C327.512 290.915 326.941 290.725 326.179 290.725C325.226 290.725 324.655 290.915 324.083 291.295C323.512 291.674 323.321 292.244 323.321 292.814C323.321 293.384 323.512 293.954 323.893 294.334C324.274 294.714 324.845 295.094 325.607 295.473C326.369 295.853 327.321 296.233 328.464 296.613C329.226 296.803 329.988 297.183 330.56 297.563C331.322 297.943 331.893 298.513 332.464 298.892C333.036 299.462 333.417 300.032 333.798 300.792C334.179 301.552 334.179 302.312 334.179 303.451C334.179 304.591 333.988 305.541 333.607 306.49C333.226 307.44 332.655 308.01 331.893 308.77C331.131 309.53 330.369 309.909 329.417 310.099C328.464 310.479 327.512 310.479 326.369 310.479C325.036 310.479 323.702 310.289 322.559 309.719C321.417 309.15 320.274 308.39 319.512 307.63C318.75 306.87 317.988 305.731 317.417 304.591L320.655 302.312C320.845 303.071 321.417 303.831 321.988 304.591Z" fill="#191A48"/>
<path d="M347.894 304.591C348.465 305.161 349.036 305.731 349.798 306.11C350.56 306.49 351.322 306.68 352.084 306.68C353.037 306.68 353.798 306.49 354.37 305.921C354.941 305.351 355.322 304.781 355.322 304.021C355.322 303.261 355.132 302.691 354.751 302.312C354.37 301.932 353.798 301.552 353.227 301.172C352.656 300.792 351.703 300.412 350.56 300.032C349.989 299.842 349.417 299.652 348.655 299.272C347.894 298.892 347.322 298.513 346.751 297.943C346.179 297.373 345.608 296.803 345.227 296.043C344.846 295.283 344.655 294.334 344.655 293.194C344.655 291.864 345.036 290.725 345.608 289.775C346.179 288.825 347.132 288.065 348.275 287.496C349.417 286.926 350.751 286.736 352.084 286.736C353.608 286.736 354.751 286.926 355.894 287.496C356.846 288.065 357.799 288.635 358.56 289.395C359.322 290.155 359.894 290.915 360.275 291.674L356.656 293.764C356.275 293.194 356.084 292.814 355.513 292.244C354.941 291.674 354.56 291.485 353.989 291.105C353.417 290.915 352.846 290.725 352.084 290.725C351.132 290.725 350.56 290.915 349.989 291.295C349.417 291.674 349.227 292.244 349.227 292.814C349.227 293.384 349.417 293.954 349.798 294.334C350.179 294.714 350.751 295.094 351.513 295.473C352.275 295.853 353.227 296.233 354.37 296.613C355.132 296.803 355.894 297.183 356.465 297.563C357.227 297.943 357.799 298.513 358.37 298.892C358.941 299.462 359.322 300.032 359.703 300.792C360.084 301.552 360.084 302.312 360.084 303.451C360.084 304.591 359.894 305.541 359.513 306.49C359.132 307.44 358.56 308.01 357.799 308.77C357.037 309.53 356.275 309.909 355.322 310.099C354.37 310.479 353.417 310.479 352.275 310.479C350.941 310.479 349.608 310.289 348.465 309.719C347.322 309.15 346.179 308.39 345.417 307.63C344.655 306.87 343.893 305.731 343.322 304.591L346.56 302.312C346.941 303.071 347.322 303.831 347.894 304.591Z" fill="#191A48"/>
<path d="M374.942 287.116V309.909H370.18V287.116H374.942Z" fill="#191A48"/>
<path d="M392.085 302.312L392.275 303.261L389.228 309.719H384.085L395.514 285.596L406.942 309.719H401.609L398.752 303.451V302.312L395.323 294.334L392.085 302.312ZM389.99 301.172H400.847L401.418 304.781H389.418L389.99 301.172Z" fill="#191A48"/>
<path d="M904.268 309.782H962.17V227.058H964.971L1019.14 309.782H1087.31L1014.47 207.538L1086.38 114.59H1018.2L964.037 189.878H961.236V114.59H903.334V309.782H904.268ZM1615.9 313.5C1681.27 313.5 1725.16 274.461 1725.16 212.186C1725.16 149.91 1681.27 110.872 1615.9 110.872C1550.53 110.872 1506.63 149.91 1506.63 212.186C1506.63 274.461 1550.53 313.5 1615.9 313.5ZM1615.9 267.025C1585.08 267.025 1563.6 245.647 1563.6 213.115C1563.6 180.583 1585.08 159.205 1615.9 159.205C1646.72 159.205 1667.26 180.583 1667.26 213.115C1668.2 245.647 1646.72 267.025 1615.9 267.025ZM1266.62 309.782H1208.72V262.378V162.923H1176.03C1151.75 162.923 1132.14 184.301 1132.14 213.115C1132.14 242.859 1151.75 263.307 1176.03 263.307H1183.5V310.711H1176.03C1120 310.711 1074.24 269.814 1074.24 214.045C1074.24 158.276 1120 116.449 1176.03 116.449H1265.69V309.782H1266.62ZM1291.84 309.782H1349.74V262.378V162.923H1382.42C1406.71 162.923 1426.32 184.301 1426.32 213.115C1426.32 242.859 1406.71 263.307 1382.42 263.307H1374.95V310.711H1382.42C1438.46 310.711 1484.22 269.814 1484.22 214.045C1484.22 158.276 1438.46 116.449 1382.42 116.449H1292.77V309.782H1291.84Z" fill="#162137"/>
<path fill-rule="evenodd" clip-rule="evenodd" d="M828.622 310.67C835.358 310.67 841.131 310.67 847.866 310.67C847.866 245.079 847.866 180.425 847.866 114.834C841.131 114.834 835.358 114.834 828.622 114.834C828.622 180.425 828.622 246.016 828.622 310.67Z" fill="#1E5073"/>
<path fill-rule="evenodd" clip-rule="evenodd" d="M804.284 310.67C807.767 310.67 812.121 310.67 815.604 310.67C815.604 245.079 815.604 180.425 815.604 114.834C812.121 114.834 807.767 114.834 804.284 114.834C804.284 180.425 804.284 246.016 804.284 310.67Z" fill="#2878AF"/>
<path d="M779.38 310.67H785.04V114.834H779.38V310.67Z" fill="#00A3E0"/>
<path d="M854.092 310.67H879.562V114.834H854.092V310.67Z" fill="#162137"/>
<path d="M509.965 310.67H565.83V193.543H568.624L609.591 310.67H654.284L695.252 193.543H698.045V310.67H753.91V114.834H687.803H676.63H672.906L631.938 231.024L590.97 114.834H586.314H576.072H509.965V310.67Z" fill="#00A3E0"/>
</svg>
