<svg width="183" height="39" viewBox="0 0 183 39" fill="none" xmlns="http://www.w3.org/2000/svg">
<g id="Group">
<g id="Layer 1">
<path id="Vector" d="M182.656 4.73748C182.82 4.18798 182.854 3.60756 182.755 3.04255C182.656 2.47754 182.428 1.94359 182.088 1.48333C181.747 1.02306 181.305 0.649237 180.796 0.39169C180.287 0.134143 179.725 1.04413e-05 179.156 0H49.4655C42.1063 0 35.9056 5.76532 35.5779 13.1687C35.4932 15.0322 35.7845 16.8937 36.4343 18.6406C37.0841 20.3875 38.0788 21.9836 39.3583 23.3325C40.6379 24.6814 42.1758 25.7551 43.879 26.4887C45.5822 27.2223 47.4155 27.6005 49.268 27.6005H172.786C173.67 27.6005 174.531 27.3135 175.24 26.7819C175.949 26.2504 176.47 25.5028 176.724 24.65L182.656 4.73748Z" fill="url(#paint0_linear_2883_6129)"/>
<path id="Vector_2" d="M179.156 1.15047C179.547 1.15038 179.934 1.24253 180.284 1.41956C180.634 1.59658 180.938 1.85357 181.172 2.17001C181.406 2.48645 181.563 2.85357 181.631 3.24205C181.699 3.63054 181.675 4.02962 181.563 4.40744L175.631 24.3199C175.45 24.9374 175.075 25.4789 174.562 25.8632C174.049 26.2475 173.426 26.4537 172.787 26.4508H49.268C46.7533 26.4609 44.294 25.7079 42.2106 24.29C40.1271 22.8721 38.5161 20.8551 37.5876 18.5018C36.6591 16.1485 36.4561 13.5681 37.0052 11.097C37.5542 8.62585 38.8298 6.37858 40.6656 4.64809C43.0496 2.39613 46.1971 1.14513 49.4658 1.15036L179.156 1.15047ZM179.156 0.00030665H49.4655C42.1063 0.00030665 35.9056 5.76563 35.578 13.169C35.4933 15.0325 35.7846 16.8939 36.4344 18.6408C37.0842 20.3877 38.0789 21.9838 39.3585 23.3326C40.638 24.6815 42.1759 25.7552 43.8791 26.4887C45.5823 27.2223 47.4155 27.6005 49.268 27.6005H172.786C173.67 27.6005 174.531 27.3135 175.24 26.7819C175.95 26.2504 176.47 25.5028 176.724 24.65L182.656 4.73748C182.82 4.18798 182.854 3.60756 182.755 3.04255C182.656 2.47754 182.428 1.94359 182.088 1.48333C181.748 1.02306 181.305 0.649237 180.796 0.39169C180.287 0.134143 179.725 1.04413e-05 179.156 0V0.00030665Z" fill="#009747"/>
<path id="Vector_3" d="M49.725 25.3005C56.0322 25.3005 61.1452 20.1518 61.1452 13.8005C61.1452 7.44917 56.0322 2.30042 49.725 2.30042C43.4178 2.30042 38.3048 7.44917 38.3048 13.8005C38.3048 20.1518 43.4178 25.3005 49.725 25.3005Z" fill="white"/>
<path id="Vector_4" d="M49.725 23.2305C54.8969 23.2305 59.0896 19.0086 59.0896 13.8005C59.0896 8.5924 54.8969 4.37042 49.725 4.37042C44.5531 4.37042 40.3604 8.5924 40.3604 13.8005C40.3604 19.0086 44.5531 23.2305 49.725 23.2305Z" fill="#E21E23"/>
<path id="Vector_5" d="M49.6107 14.0305C52.9536 14.0305 55.6635 12.1254 55.6635 9.77543C55.6635 7.42542 52.9536 5.52037 49.6107 5.52037C46.2679 5.52037 43.558 7.42542 43.558 9.77543C43.558 12.1254 46.2679 14.0305 49.6107 14.0305Z" fill="url(#paint1_linear_2883_6129)"/>
<path id="Vector_6" d="M90.5361 12.5355V15.0655C90.5361 15.5185 90.6247 15.9672 90.7969 16.3858C90.9691 16.8043 91.2214 17.1847 91.5396 17.505C91.8577 17.8254 92.2354 18.0795 92.6511 18.2529C93.0667 18.4262 93.5123 18.5155 93.9622 18.5154H94.6473C95.0972 18.5155 95.5428 18.4262 95.9584 18.2529C96.3741 18.0795 96.7518 17.8254 97.0699 17.505C97.3881 17.1847 97.6405 16.8043 97.8126 16.3858C97.9848 15.9672 98.0734 15.5185 98.0734 15.0655V12.5355C98.0734 12.0824 97.9848 11.6338 97.8126 11.2152C97.6405 10.7966 97.3881 10.4163 97.0699 10.0959C96.7518 9.77557 96.3741 9.52145 95.9584 9.34808C95.5428 9.17471 95.0972 9.08548 94.6473 9.08549H93.9622C93.5123 9.08548 93.0667 9.17471 92.6511 9.34808C92.2354 9.52145 91.8577 9.77557 91.5396 10.0959C91.2214 10.4163 90.9691 10.7966 90.7969 11.2152C90.6247 11.6338 90.5361 12.0824 90.5361 12.5355ZM95.2181 16.79H93.3911C93.0579 16.79 92.7384 16.6567 92.5028 16.4195C92.2672 16.1823 92.1349 15.8605 92.1349 15.525V12.0754C92.1349 11.7399 92.2672 11.4182 92.5028 11.1809C92.7384 10.9437 93.0579 10.8104 93.3911 10.8104H95.2184C95.3834 10.8104 95.5467 10.8431 95.6991 10.9067C95.8515 10.9703 95.99 11.0635 96.1067 11.1809C96.2233 11.2984 96.3158 11.4379 96.3789 11.5913C96.4421 11.7448 96.4745 11.9093 96.4745 12.0754V15.5255C96.4745 15.6916 96.4421 15.8561 96.3789 16.0096C96.3158 16.1631 96.2233 16.3025 96.1067 16.42C95.99 16.5375 95.8515 16.6306 95.6991 16.6942C95.5467 16.7578 95.3834 16.7905 95.2184 16.7905L95.2181 16.79Z" fill="white"/>
<path id="Vector_7" d="M72.4922 18.5155V9.77544C72.4922 9.43993 72.6245 9.11817 72.8601 8.88094C73.0957 8.6437 73.4152 8.51042 73.7484 8.51042H76.832C77.1652 8.51042 77.4847 8.6437 77.7203 8.88094C77.9559 9.11817 78.0883 9.43993 78.0883 9.77544V18.5155H79.687V10.2355C79.687 9.78239 79.5983 9.33377 79.4262 8.91519C79.254 8.49661 79.0016 8.11629 78.6835 7.79593C78.3653 7.47557 77.9876 7.22145 77.572 7.04808C77.1563 6.8747 76.7108 6.78548 76.2608 6.78549H74.3195C73.8696 6.78548 73.424 6.8747 73.0084 7.04808C72.5927 7.22145 72.215 7.47557 71.8969 7.79593C71.5787 8.11629 71.3264 8.49661 71.1542 8.91519C70.982 9.33377 70.8934 9.78239 70.8934 10.2355V18.5155H72.4922Z" fill="white"/>
<path id="Vector_8" d="M137.701 6.78549C136.793 6.78549 135.921 7.14897 135.279 7.79596C134.636 8.44296 134.275 9.32047 134.275 10.2355V15.5255C134.275 15.861 134.143 16.1828 133.907 16.42C133.672 16.6572 133.352 16.7905 133.019 16.7905H132.905V18.4841C133.727 18.3727 134.481 17.9649 135.027 17.3362C135.573 16.7075 135.874 15.9007 135.874 15.0655V9.77544C135.874 9.43993 136.006 9.11817 136.242 8.88094C136.477 8.6437 136.797 8.51042 137.13 8.51042H140.785V18.5155H142.383V6.78549H137.701Z" fill="white"/>
<path id="Vector_9" d="M85.6254 9.08549H84.9402C84.4903 9.08548 84.0447 9.17471 83.6291 9.34808C83.2134 9.52145 82.8357 9.77557 82.5176 10.0959C82.1994 10.4163 81.947 10.7966 81.7749 11.2152C81.6027 11.6338 81.5141 12.0824 81.5141 12.5355V20.8155H83.1129V18.1992L85.6253 18.5154C86.0752 18.5154 86.5207 18.4262 86.9364 18.2528C87.3521 18.0795 87.7297 17.8253 88.0479 17.505C88.366 17.1846 88.6184 16.8043 88.7905 16.3857C88.9627 15.9672 89.0513 15.5185 89.0513 15.0655V12.5355C89.0513 11.6205 88.6904 10.743 88.0479 10.096C87.4054 9.44901 86.534 9.08552 85.6254 9.08549ZM87.4526 15.5255C87.4526 15.6917 87.4201 15.8562 87.357 16.0097C87.2938 16.1632 87.2013 16.3026 87.0846 16.4201C86.9679 16.5376 86.8294 16.6308 86.6769 16.6943C86.5245 16.7579 86.3611 16.7906 86.1961 16.7905L83.1127 16.4693V12.0754C83.1127 11.7399 83.245 11.4182 83.4806 11.1809C83.7162 10.9437 84.0357 10.8104 84.3689 10.8104H86.1961C86.5293 10.8104 86.8488 10.9437 87.0844 11.1809C87.32 11.4182 87.4523 11.7399 87.4523 12.0754L87.4526 15.5255Z" fill="white"/>
<path id="Vector_10" d="M107.095 9.08551H106.41C106.257 9.08578 106.105 9.09627 105.953 9.1169V8.28052H104.354V9.1169C104.203 9.09627 104.05 9.08578 103.897 9.08551H103.212C102.762 9.08549 102.317 9.17472 101.901 9.34809C101.485 9.52146 101.108 9.77558 100.79 10.0959C100.471 10.4163 100.219 10.7966 100.047 11.2152C99.8747 11.6338 99.7861 12.0824 99.7861 12.5355V15.0655C99.7861 15.5186 99.8747 15.9672 100.047 16.3858C100.219 16.8043 100.471 17.1847 100.79 17.505C101.108 17.8254 101.485 18.0795 101.901 18.2529C102.317 18.4262 102.762 18.5155 103.212 18.5155C103.212 18.5155 104.205 18.2741 104.354 18.2541V20.4705H105.953V18.2541C106.103 18.2745 107.095 18.5155 107.095 18.5155C107.545 18.5155 107.99 18.4262 108.406 18.2529C108.822 18.0795 109.199 17.8254 109.518 17.505C109.836 17.1847 110.088 16.8043 110.26 16.3858C110.433 15.9672 110.521 15.5186 110.521 15.0655V12.5355C110.521 11.6205 110.16 10.743 109.518 10.0961C108.875 9.44906 108.004 9.08556 107.095 9.08551ZM104.354 16.5602L102.642 16.7902C102.308 16.7902 101.989 16.6569 101.753 16.4197C101.518 16.1825 101.385 15.8607 101.385 15.5252V12.0754C101.385 11.7399 101.518 11.4182 101.753 11.181C101.989 10.9437 102.308 10.8104 102.642 10.8104H104.354V16.5602ZM108.923 15.5252C108.923 15.8607 108.79 16.1825 108.555 16.4197C108.319 16.6569 107.999 16.7902 107.666 16.7902L105.953 16.5602V10.8104H107.666C108 10.8104 108.319 10.9437 108.555 11.181C108.79 11.4182 108.923 11.7399 108.923 12.0754L108.923 15.5252Z" fill="white"/>
<path id="Vector_11" d="M129.022 9.08549H121.256V10.8104H124.34V18.5154H125.939V10.8104H129.022V9.08549Z" fill="white"/>
<path id="Vector_12" d="M119.657 15.7555V9.08549H118.059V15.5255C118.059 15.861 117.926 16.1828 117.691 16.42C117.455 16.6572 117.136 16.7905 116.802 16.7905H114.975C114.642 16.7905 114.323 16.6572 114.087 16.42C113.851 16.1828 113.719 15.861 113.719 15.5255V9.08549H112.12V15.0655C112.12 15.9805 112.481 16.858 113.124 17.505C113.766 18.152 114.638 18.5154 115.546 18.5154H116.231C116.685 18.516 117.134 18.4255 117.553 18.2493C117.971 18.073 118.351 17.8146 118.669 17.4891C118.925 17.8096 119.25 18.0681 119.619 18.2457C119.987 18.4233 120.391 18.5155 120.799 18.5154V16.9055C120.497 16.9051 120.206 16.7838 119.992 16.5682C119.778 16.3527 119.658 16.0604 119.657 15.7555Z" fill="white"/>
<path id="Vector_13" d="M151.634 15.7555V9.08549H150.035V15.5255C150.035 15.861 149.903 16.1828 149.667 16.42C149.432 16.6572 149.112 16.7905 148.779 16.7905H146.952C146.619 16.7905 146.299 16.6572 146.063 16.42C145.828 16.1828 145.695 15.861 145.695 15.5255V9.08549H144.097V15.0655C144.097 15.5185 144.186 15.9672 144.358 16.3858C144.53 16.8043 144.782 17.1847 145.1 17.505C145.419 17.8254 145.796 18.0795 146.212 18.2529C146.628 18.4262 147.073 18.5155 147.523 18.5154H148.208C148.662 18.516 149.111 18.4255 149.529 18.2493C149.948 18.0731 150.327 17.8147 150.646 17.4891C150.902 17.8096 151.227 18.0681 151.595 18.2457C151.964 18.4233 152.367 18.5154 152.776 18.5154V16.9055C152.473 16.9051 152.183 16.7839 151.969 16.5683C151.755 16.3527 151.634 16.0604 151.634 15.7555Z" fill="white"/>
<path id="Vector_14" d="M157.572 9.08549C157.123 9.08548 156.677 9.17471 156.261 9.34808C155.846 9.52145 155.468 9.77557 155.15 10.0959C154.832 10.4163 154.579 10.7966 154.407 11.2152C154.235 11.6338 154.146 12.0824 154.146 12.5355V18.5154H155.745V12.0754C155.745 11.7399 155.878 11.4182 156.113 11.1809C156.349 10.9437 156.668 10.8104 157.001 10.8104H160.542V9.08549H157.572Z" fill="white"/>
<path id="Vector_15" d="M168.422 16.2154V12.5355C168.422 11.6205 168.061 10.743 167.418 10.096C166.776 9.44897 165.904 9.08549 164.996 9.08549H162.483V10.8104H165.567C165.9 10.8104 166.219 10.9437 166.455 11.1809C166.69 11.4182 166.823 11.7399 166.823 12.0754V12.4675C165.897 12.3474 164.525 12.1905 163.682 12.1905C162.85 12.1914 162.051 12.5249 161.463 13.1178C160.874 13.7107 160.543 14.5145 160.542 15.353C160.542 17.0744 161.911 18.4633 163.659 18.5151C163.687 18.516 163.716 18.5164 163.744 18.5164C164.955 18.5164 166.118 17.7625 166.97 17.0201C167.133 17.4587 167.425 17.8367 167.806 18.1039C168.188 18.3711 168.642 18.5146 169.107 18.5154V16.9055C168.925 16.9053 168.751 16.8325 168.623 16.7032C168.494 16.5738 168.422 16.3984 168.422 16.2154ZM163.746 16.9064C163.732 16.9064 163.719 16.9064 163.706 16.9058C162.828 16.8798 162.141 16.1977 162.141 15.353C162.141 14.9414 162.304 14.5468 162.593 14.2558C162.882 13.9648 163.274 13.801 163.682 13.8005C164.498 13.8005 165.945 13.9743 166.823 14.0914V14.8985C166.187 15.621 164.832 16.9064 163.746 16.9064Z" fill="white"/>
<g id="Group 2">
<path id="Vector_16" d="M65.4072 29.1461C62.2011 33.4717 57.9199 36.8704 52.9945 39H133.69L136.626 29.1461H65.4072Z" fill="#F44336"/>
<path id="Vector_17" d="M70.6965 32.17H74.9386L74.0083 37.4819H72.5122L73.2169 33.4578H71.8783C71.7785 34.0554 71.6485 34.6476 71.4889 35.2319C71.3804 35.6362 71.2389 36.0307 71.0659 36.4114C70.9473 36.679 70.7746 36.9187 70.5587 37.1151C70.3876 37.2679 70.1864 37.3827 69.9682 37.4521C69.7322 37.5161 69.4884 37.5462 69.244 37.5414C68.9938 37.5437 68.7444 37.5137 68.5018 37.4521L68.8136 36.233C68.9158 36.2517 69.0195 36.2617 69.1234 36.2628C69.2634 36.268 69.4014 36.228 69.5172 36.1487C69.6707 36.0052 69.7907 35.8291 69.8683 35.6333C70.0394 35.2347 70.1696 34.8196 70.2569 34.3944C70.388 33.8366 70.5345 33.0951 70.6965 32.17Z" fill="white"/>
<path id="Vector_18" d="M77.8261 37.6016C77.0254 37.6016 76.4108 37.3454 75.9822 36.8332C75.5535 36.3209 75.4109 35.6552 75.5543 34.8362C75.682 34.0769 76.0637 33.3844 76.6361 32.8737C77.1789 32.3557 77.899 32.0682 78.6468 32.0709C79.4801 32.0709 80.0683 32.3484 80.4112 32.9034C80.7542 33.4584 80.8542 34.1423 80.7112 34.9553C80.6972 35.0345 80.6675 35.1672 80.6221 35.3516H76.9508C76.9476 35.4947 76.9731 35.637 77.026 35.7699C77.0789 35.9027 77.1579 36.0235 77.2584 36.1247C77.4808 36.3141 77.7671 36.41 78.0579 36.3924C78.5654 36.3768 79.0518 36.1841 79.4338 35.8473L80.1564 36.6105C79.8569 36.9287 79.4953 37.181 79.0942 37.3515C78.6932 37.5221 78.2614 37.6072 77.8261 37.6016ZM77.0955 34.4099H79.3495C79.3779 34.1186 79.3015 33.8267 79.1342 33.5874C79.0505 33.4836 78.9434 33.4016 78.8217 33.3481C78.7001 33.2947 78.5675 33.2713 78.435 33.2801C78.1387 33.278 77.852 33.3856 77.6292 33.5823C77.3802 33.8045 77.1958 34.0905 77.0955 34.4099Z" fill="white"/>
<path id="Vector_19" d="M86.2377 32.17L86.0123 33.4578H84.4472L83.7426 37.4819H82.2268L82.9315 33.4578H81.3666L81.5921 32.17H86.2377Z" fill="white"/>
<path id="Vector_20" d="M91.5464 37.6016C90.7586 37.6016 90.1509 37.3339 89.7234 36.7986C89.2958 36.2633 89.1495 35.6091 89.2845 34.8362C89.4189 34.0693 89.8195 33.3756 90.4148 32.8786C90.9976 32.3538 91.7534 32.0659 92.5353 32.0709C93.3819 32.0709 94.0264 32.3814 94.4687 33.0025L93.4365 33.8946C93.2975 33.7273 93.1232 33.5933 92.9263 33.5024C92.7294 33.4115 92.5148 33.366 92.2982 33.3693C92.1133 33.3705 91.9305 33.4088 91.7606 33.4819C91.5906 33.5551 91.4368 33.6617 91.3081 33.7954C91.0188 34.0735 90.8271 34.4388 90.7618 34.8362C90.7205 35.014 90.7157 35.1985 90.7476 35.3783C90.7796 35.558 90.8477 35.7293 90.9478 35.8817C91.0496 36.0224 91.1851 36.1349 91.3417 36.2086C91.4983 36.2823 91.671 36.3148 91.8435 36.3031C92.257 36.3031 92.6935 36.1147 93.153 35.7381L93.8729 36.63C93.5616 36.9248 93.2066 37.1688 92.8207 37.3535C92.4187 37.5279 91.984 37.6126 91.5464 37.6016Z" fill="white"/>
<path id="Vector_21" d="M97.8074 37.4819L99.0215 30.5439H102.221C103.015 30.5439 103.579 30.7487 103.915 31.1583C104.045 31.3254 104.137 31.52 104.182 31.7277C104.228 31.9354 104.226 32.1507 104.177 32.3577C104.063 33.0117 103.673 33.5107 103.01 33.8544C103.353 33.9771 103.65 34.2038 103.86 34.5035C104.03 34.7711 104.076 35.1297 103.997 35.5793C103.954 35.8703 103.847 36.1482 103.685 36.3931C103.523 36.6381 103.31 36.8441 103.06 36.9967C102.544 37.3206 101.885 37.4825 101.085 37.4824L97.8074 37.4819ZM99.5181 36.1438H101.319C102.034 36.1438 102.437 35.8861 102.527 35.3707C102.615 34.8686 102.285 34.6176 101.537 34.6176H99.7852L99.5181 36.1438ZM100.007 33.3489H101.405C102.134 33.3489 102.542 33.0978 102.629 32.5955C102.655 32.5007 102.654 32.4004 102.625 32.3065C102.596 32.2126 102.541 32.129 102.466 32.0654C102.258 31.9261 102.01 31.8615 101.761 31.8818H100.264L100.007 33.3489Z" fill="white"/>
<path id="Vector_22" d="M106.235 37.5817C106.013 37.5946 105.791 37.5626 105.582 37.4877C105.373 37.4128 105.181 37.2964 105.017 37.1455C104.723 36.8548 104.622 36.4517 104.712 35.9363C104.747 35.6797 104.837 35.4337 104.974 35.2149C105.112 34.996 105.294 34.8094 105.51 34.6676C105.998 34.3685 106.563 34.2203 107.134 34.2415C107.561 34.2392 107.985 34.3131 108.386 34.4596L108.402 34.3701C108.515 33.7228 108.195 33.399 107.44 33.3989C106.926 33.4104 106.416 33.5075 105.933 33.6863L105.76 32.5366C106.433 32.2567 107.154 32.1119 107.882 32.1105C108.676 32.1105 109.235 32.3087 109.56 32.7052C109.873 33.0886 109.964 33.6536 109.834 34.4004L109.293 37.4819H107.847L107.947 36.9071C107.486 37.3496 106.871 37.5919 106.235 37.5817ZM106.87 36.5409C107.188 36.55 107.5 36.4581 107.763 36.2783C107.878 36.2028 107.976 36.1046 108.052 35.9896C108.128 35.8745 108.18 35.7451 108.205 35.6091L108.252 35.3415C107.965 35.2033 107.649 35.1355 107.331 35.1434C107.053 35.1308 106.777 35.1978 106.535 35.3366C106.436 35.3972 106.352 35.4788 106.289 35.5755C106.225 35.6723 106.183 35.7819 106.166 35.8967C106.145 35.9809 106.147 36.0694 106.173 36.1524C106.198 36.2355 106.246 36.3099 106.31 36.3676C106.469 36.4926 106.669 36.5543 106.87 36.5409Z" fill="white"/>
<path id="Vector_23" d="M110.583 37.4819L111.513 32.1694H113.029L114.065 34.3993L115.902 32.1694H117.418L116.488 37.4819H114.972L115.531 34.2904L113.683 36.4713L112.613 34.3204L112.059 37.4827L110.583 37.4819Z" fill="white"/>
<path id="Vector_24" d="M123.669 32.17L122.738 37.4826H121.291L121.833 34.39L119.234 37.4819H117.826L118.756 32.1694H120.203L119.66 35.2717L122.26 32.1694L123.669 32.17Z" fill="white"/>
<path id="Vector_25" d="M124.205 37.4819L124.483 35.896H126.077L125.799 37.4819H124.205ZM125.002 35.1229L125.306 30.7421L125.341 30.5439H127.093L127.058 30.7421L125.828 35.1229H125.002Z" fill="white"/>
</g>
<path id="Vector_26" d="M49.3698 32.3103C57.2422 32.3103 63.6239 25.8839 63.6239 17.9565C63.6239 10.0292 57.2422 3.60277 49.3698 3.60277C41.4975 3.60277 35.1158 10.0292 35.1158 17.9565C35.1158 25.8839 41.4975 32.3103 49.3698 32.3103Z" fill="white"/>
<path id="Vector_27" style="mix-blend-mode:overlay" d="M49.3698 32.3103C57.2422 32.3103 63.6239 25.8839 63.6239 17.9565C63.6239 10.0292 57.2422 3.60277 49.3698 3.60277C41.4975 3.60277 35.1158 10.0292 35.1158 17.9565C35.1158 25.8839 41.4975 32.3103 49.3698 32.3103Z" fill="url(#paint2_linear_2883_6129)"/>
<path id="Vector_28" d="M40.4608 8.57434C39.189 11.0803 38.726 13.9236 39.1366 16.7073C39.5472 19.491 40.8108 22.0761 42.7509 24.1017C42.8073 24.1605 42.8637 24.2193 42.9211 24.2771C42.9785 24.3349 43.0369 24.3916 43.0953 24.4485C44.8512 26.1278 47.189 27.05 49.6104 27.0186C52.0319 26.9872 54.3453 26.0046 56.0577 24.2803C57.77 22.556 58.7458 20.2264 58.7771 17.7881C58.8083 15.3497 57.8926 12.9955 56.225 11.2273C58.6604 13.7688 60.0106 17.1697 59.986 20.7015C59.9615 24.2332 58.5643 27.6148 56.0938 30.1218C53.6233 32.6287 50.276 34.0616 46.7691 34.1134C43.2622 34.1651 39.8746 32.8317 37.3321 30.3988C37.2485 30.3185 37.1658 30.2372 37.0841 30.1549C37.0025 30.0726 36.9217 29.9894 36.8419 29.9052C33.6593 26.5715 31.9019 22.1139 31.9471 17.4897C31.9924 12.8656 33.8366 8.44373 37.0839 5.17382C40.3311 1.9039 44.7222 0.0467359 49.3142 0.0011787C53.9063 -0.0443785 58.3329 1.72531 61.6435 4.93016C60.1302 3.4848 58.3032 2.41447 56.3075 1.80407C54.3119 1.19368 52.2024 1.06002 50.1465 1.41372C48.0905 1.76741 46.1448 2.59872 44.4635 3.84168C42.7823 5.08464 41.4118 6.70505 40.4609 8.57434H40.4608Z" fill="url(#paint3_linear_2883_6129)"/>
<path id="Vector_29" style="mix-blend-mode:overlay" opacity="0.5" d="M40.4608 8.57434C39.189 11.0803 38.726 13.9236 39.1366 16.7073C39.5472 19.491 40.8108 22.0761 42.7509 24.1017C42.8073 24.1605 42.8637 24.2193 42.9211 24.2771C42.9785 24.3349 43.0369 24.3916 43.0953 24.4485C44.8512 26.1278 47.189 27.05 49.6104 27.0186C52.0319 26.9872 54.3453 26.0046 56.0577 24.2803C57.77 22.556 58.7458 20.2264 58.7771 17.7881C58.8083 15.3497 57.8926 12.9955 56.225 11.2273C58.6604 13.7688 60.0106 17.1697 59.986 20.7015C59.9615 24.2332 58.5643 27.6148 56.0938 30.1218C53.6233 32.6287 50.276 34.0616 46.7691 34.1134C43.2622 34.1651 39.8746 32.8317 37.3321 30.3988C37.2485 30.3185 37.1658 30.2372 37.0841 30.1549C37.0025 30.0726 36.9217 29.9894 36.8419 29.9052C33.6593 26.5715 31.9019 22.1139 31.9471 17.4897C31.9924 12.8656 33.8366 8.44373 37.0839 5.17382C40.3311 1.9039 44.7222 0.0467359 49.3142 0.0011787C53.9063 -0.0443785 58.3329 1.72531 61.6435 4.93016C60.1302 3.4848 58.3032 2.41447 56.3075 1.80407C54.3119 1.19368 52.2024 1.06002 50.1465 1.41372C48.0905 1.76741 46.1448 2.59872 44.4635 3.84168C42.7823 5.08464 41.4118 6.70505 40.4609 8.57434H40.4608Z" fill="url(#paint4_linear_2883_6129)"/>
<path id="Vector_30" d="M61.6434 4.93016C61.7271 5.01047 61.8098 5.09178 61.8915 5.17408C61.9732 5.25637 62.054 5.33962 62.1337 5.42383C65.3163 8.75753 67.0737 13.2151 67.0285 17.8393C66.9832 22.4634 65.139 26.8853 61.8918 30.1552C58.6445 33.4251 54.2534 35.2823 49.6614 35.3278C45.0693 35.3734 40.6427 33.6037 37.3322 30.3988C39.8743 32.8332 43.2624 34.1678 46.7701 34.1166C50.2778 34.0655 53.6261 32.6325 56.0971 30.125C58.5682 27.6175 59.9654 24.235 59.9893 20.7024C60.0132 17.1699 58.6619 13.7685 56.225 11.2273C56.1685 11.1685 56.1122 11.1097 56.0548 11.0519C55.9974 10.9941 55.939 10.9372 55.8806 10.8805C54.1247 9.2012 51.7869 8.27898 49.3655 8.3104C46.9441 8.34182 44.6306 9.3244 42.9183 11.0487C41.2059 12.773 40.2301 15.1026 40.1988 17.5409C40.1676 19.9793 41.0833 22.3335 42.7509 24.1017C40.3175 21.5599 38.969 18.1596 38.9943 14.629C39.0197 11.0984 40.4167 7.71813 42.8864 5.21197C45.3561 2.70581 48.7021 1.27299 52.2078 1.22032C55.7136 1.16764 59.1005 2.4993 61.6434 4.93016Z" fill="url(#paint5_linear_2883_6129)"/>
<path id="Vector_31" style="mix-blend-mode:overlay" d="M61.6434 4.93016C61.7271 5.01047 61.8098 5.09178 61.8915 5.17408C61.9732 5.25637 62.054 5.33962 62.1337 5.42383C65.3163 8.75753 67.0737 13.2151 67.0285 17.8393C66.9832 22.4634 65.139 26.8853 61.8918 30.1552C58.6445 33.4251 54.2534 35.2823 49.6614 35.3278C45.0693 35.3734 40.6427 33.6037 37.3322 30.3988C39.8743 32.8332 43.2624 34.1678 46.7701 34.1166C50.2778 34.0655 53.6261 32.6325 56.0971 30.125C58.5682 27.6175 59.9654 24.235 59.9893 20.7024C60.0132 17.1699 58.6619 13.7685 56.225 11.2273C56.1685 11.1685 56.1122 11.1097 56.0548 11.0519C55.9974 10.9941 55.939 10.9372 55.8806 10.8805C54.1247 9.2012 51.7869 8.27898 49.3655 8.3104C46.9441 8.34182 44.6306 9.3244 42.9183 11.0487C41.2059 12.773 40.2301 15.1026 40.1988 17.5409C40.1676 19.9793 41.0833 22.3335 42.7509 24.1017C40.3175 21.5599 38.969 18.1596 38.9943 14.629C39.0197 11.0984 40.4167 7.71813 42.8864 5.21197C45.3561 2.70581 48.7021 1.27299 52.2078 1.22032C55.7136 1.16764 59.1005 2.4993 61.6434 4.93016Z" fill="url(#paint6_linear_2883_6129)"/>
<path id="Vector_32" d="M49.4874 25.6307C53.8565 25.6307 57.3984 22.0641 57.3984 17.6644C57.3984 13.2648 53.8565 9.69821 49.4874 9.69821C45.1184 9.69821 41.5765 13.2648 41.5765 17.6644C41.5765 22.0641 45.1184 25.6307 49.4874 25.6307Z" fill="#E21E23"/>
<path id="Vector_33" d="M49.391 17.8588C52.2149 17.8588 54.5041 16.2495 54.5041 14.2643C54.5041 12.2791 52.2149 10.6698 49.391 10.6698C46.567 10.6698 44.2778 12.2791 44.2778 14.2643C44.2778 16.2495 46.567 17.8588 49.391 17.8588Z" fill="url(#paint7_linear_2883_6129)"/>
<g id="Group_2" style="mix-blend-mode:overlay">
<path id="Vector_34" opacity="0.5" d="M61.6231 4.91135C50.6277 -3.45385 39.3035 5.45032 40.4192 15.5403C40.0731 17.0457 40.1031 18.6139 40.5065 20.1048C40.9099 21.5956 41.674 22.9624 42.7306 24.0829C40.2966 21.5411 38.9478 18.1407 38.9729 14.6098C38.998 11.079 40.3951 7.69834 42.865 5.19198C45.3349 2.68563 48.6812 1.2528 52.1873 1.20034C55.6933 1.14789 59.0804 2.47998 61.6231 4.91135Z" fill="url(#paint8_linear_2883_6129)"/>
<path id="Vector_35" opacity="0.5" d="M37.3163 30.3818C48.3117 38.747 59.636 29.843 58.5202 19.753C58.8663 18.2476 58.8363 16.6793 58.433 15.1885C58.0296 13.6977 57.2654 12.3309 56.2088 11.2104C58.6423 13.7523 59.9907 17.1525 59.9654 20.6831C59.94 24.2137 58.5429 27.594 56.0732 30.1001C53.6035 32.6063 50.2576 34.0391 46.7518 34.0917C43.246 34.1444 39.8591 32.8127 37.3163 30.3818Z" fill="url(#paint9_linear_2883_6129)"/>
</g>
<g id="Group_3" style="mix-blend-mode:overlay">
<path id="Vector_36" d="M37.3593 5.45114C40.2871 2.50316 44.1559 0.692825 48.2814 0.340339C52.4069 -0.0121467 56.5233 1.11593 59.9025 3.52504C60.5205 3.94396 61.1028 4.41396 61.6434 4.93016C58.3328 1.72531 53.9062 -0.0443785 49.3141 0.0011787C44.7221 0.0467359 40.331 1.9039 37.0838 5.17382C33.8366 8.44373 31.9923 12.8656 31.947 17.4897C31.9018 22.1139 33.6592 26.5715 36.8418 29.9052C36.9216 29.9893 37.0023 30.0725 37.084 30.1549C37.1299 30.2011 37.1768 30.2463 37.2233 30.292C37.1879 30.2553 37.1522 30.2192 37.1169 30.1822C33.9342 26.8486 32.1768 22.391 32.2221 17.7668C32.2674 13.1427 34.1119 8.72088 37.3593 5.45114Z" fill="#FFFF00"/>
<path id="Vector_37" d="M58.5147 26.7546C57.5639 28.6239 56.1934 30.2444 54.5122 31.4874C52.8309 32.7304 50.8852 33.5617 48.8292 33.9154C46.7733 34.2692 44.6638 34.1355 42.6681 33.5251C40.6724 32.9146 38.8454 31.8443 37.3322 30.3988C37.9621 31.0094 38.6364 31.572 39.3493 32.0818C42.0969 33.9472 45.4331 34.7224 48.7146 34.2578C51.9961 33.7932 54.9907 32.1218 57.121 29.5658C59.2514 27.0098 60.3667 23.7501 60.252 20.4151C60.1373 17.0802 58.8007 13.906 56.4998 11.5046C56.4435 11.4458 56.387 11.387 56.3296 11.3292C56.2837 11.2829 56.237 11.2371 56.1904 11.1921C56.2018 11.204 56.2133 11.2156 56.2247 11.2275C57.8902 12.9961 58.8042 15.3496 58.7721 17.7867C58.7399 20.2238 57.7642 22.5521 56.0527 24.2755C54.3412 25.999 52.0291 26.9815 49.6089 27.0138C47.1887 27.0461 44.8516 26.1257 43.0953 24.4485C43.0835 24.4372 43.0721 24.4256 43.0604 24.4142C43.1055 24.4611 43.1505 24.508 43.1963 24.5542C43.2537 24.6119 43.3121 24.6688 43.3705 24.7256C45.1266 26.4035 47.464 27.3246 49.8847 27.2926C52.3054 27.2606 54.618 26.278 56.3298 24.5542C59.4978 21.3641 59.9745 16.5633 57.6067 12.9349C57.7762 13.1265 62.2868 19.3307 58.5147 26.7546Z" fill="#FFFF00"/>
</g>
<path id="Vector_38" d="M51.559 33.1441C49.1753 34.1056 46.5676 34.358 44.0457 33.8713C41.5238 33.3845 39.1936 32.1791 37.3318 30.3982C37.2479 30.3178 37.1654 30.2374 37.0842 30.1543C37.0031 30.0712 36.9217 29.9894 36.8421 29.905C34.9803 27.9579 33.5877 25.606 32.7721 23.0309C31.9565 20.4557 31.7396 17.7262 32.1382 15.0532L51.559 33.1441Z" fill="url(#paint10_linear_2883_6129)"/>
<path id="Vector_39" d="M25.6768 3.18457C25.9117 2.9014 26.0614 2.55667 26.1086 2.19082C26.1558 1.82496 26.0984 1.45315 25.9431 1.11898C25.7879 0.784814 25.5413 0.502148 25.2321 0.304136C24.923 0.106124 24.5642 0.000975493 24.1979 0.00102235H14.8663C13.9641 0.00103479 13.0757 0.224426 12.2794 0.651525C11.4831 1.07862 10.8032 1.69633 10.2998 2.45025L6.38483 8.31314H21.4024L25.6768 3.18457Z" fill="url(#paint11_linear_2883_6129)"/>
<path id="Vector_40" d="M30.2525 0.00102238C31.0382 0.000909198 31.8075 0.226623 32.4701 0.651635C33.1327 1.07665 33.6611 1.6833 33.9931 2.40029C34.3252 3.11727 34.4471 3.91481 34.3445 4.69915C34.2419 5.4835 33.9191 6.22206 33.4141 6.82803L32.1773 8.31314L28.3568 12.8988L25.5915 16.2169C22.8387 19.5196 27.973 18.8614 27.973 23.8308C27.9737 23.4122 27.8924 22.9975 27.7335 22.6107C27.5746 22.2239 27.3413 21.8725 27.0471 21.5768C26.7546 21.2832 26.4084 21.0494 26.0276 20.8883C24.8074 20.3769 22.8386 19.5196 22.8386 19.5196L20.0253 18.3115C19.4323 18.0569 18.9068 17.666 18.4909 17.17C18.0749 16.6741 17.7801 16.087 17.63 15.4557C17.48 14.8244 17.4788 14.1664 17.6267 13.5346C17.7746 12.9028 18.0673 12.3146 18.4815 11.8172L21.4022 8.31365L25.6766 3.18508C25.9115 2.90191 26.0613 2.55719 26.1084 2.19133C26.1556 1.82548 26.0982 1.45366 25.943 1.11949C25.7877 0.785325 25.5411 0.50266 25.2319 0.304648C24.9228 0.106636 24.564 0.00148699 24.1977 0.00153385L30.2525 0.00102238Z" fill="url(#paint12_linear_2883_6129)"/>
<path id="Vector_41" d="M28.3568 12.8988L25.5915 16.2169C22.8309 19.5289 28.0022 18.8578 27.9729 23.8732C27.9638 24.7115 27.6262 25.5123 27.0336 26.1011C26.441 26.69 25.6413 27.0192 24.8088 27.0171H8.48159C7.57935 27.0171 6.69095 27.2405 5.89462 27.6676C5.0983 28.0947 4.41848 28.7125 3.91503 29.4664L0 35.3291H24.6517C31.0104 35.3291 36.3043 30.0895 36.2265 23.6869C36.1969 21.2865 35.4222 18.9557 34.0109 17.0211C32.5996 15.0864 30.6225 13.645 28.3568 12.8988Z" fill="url(#paint13_linear_2883_6129)"/>
<path id="Vector_42" style="mix-blend-mode:overlay" d="M27.8931 21.8772C28.0954 22.7431 28.0962 23.4496 27.9675 24.0342C27.9702 23.9802 27.9729 23.9262 27.9729 23.8721C28.0034 18.8571 22.8318 19.529 25.5915 16.2167L28.3567 12.8988C28.9297 13.0871 29.4868 13.3215 30.0224 13.5999L26.799 16.3941C24.3712 18.5704 27.1627 18.7518 27.8931 21.8772Z" fill="url(#paint14_linear_2883_6129)"/>
<g id="Group_4" style="mix-blend-mode:overlay">
<path id="Vector_43" d="M10.575 2.7273C11.0785 1.97342 11.7583 1.35576 12.5546 0.928715C13.351 0.501668 14.2393 0.278336 15.1415 0.278384H24.4731C24.9165 0.278405 25.3462 0.432636 25.6896 0.714987C25.5092 0.491984 25.2817 0.312239 25.0237 0.188798C24.7656 0.0653571 24.4835 0.00131746 24.1979 0.00132752H14.8663C13.9641 0.00133995 13.0757 0.224731 12.2794 0.651829C11.4831 1.07893 10.8032 1.69663 10.2998 2.45055L6.38483 8.31344H6.84491L10.575 2.7273Z" fill="#FFFF00"/>
<path id="Vector_44" d="M30.5277 0.278386C31.5587 0.278698 32.5523 0.667916 33.3125 1.36933C32.9258 0.938614 32.4537 0.594312 31.9267 0.358632C31.3997 0.122952 30.8295 0.00112914 30.2529 0.00102234H24.1979C24.547 0.00123259 24.8895 0.0971131 25.1886 0.278386H30.5277Z" fill="#FFFF00"/>
<path id="Vector_45" d="M17.9055 15.7331C17.7557 15.1016 17.7547 14.4436 17.9026 13.8117C18.0504 13.1798 18.3431 12.5914 18.7571 12.0937L21.6778 8.59019L25.9522 3.46162C26.1157 3.26465 26.2388 3.03692 26.3142 2.79165C26.3896 2.54639 26.4159 2.28848 26.3915 2.0329C26.3671 1.77733 26.2925 1.52919 26.172 1.30289C26.0516 1.07659 25.8877 0.876649 25.6898 0.714676C25.9739 1.06335 26.128 1.50098 26.1257 1.95194C26.1233 2.40291 25.9647 2.83889 25.677 3.18456L21.4026 8.31313L18.4819 11.8167C17.7965 12.6392 17.4539 13.6971 17.5261 14.7684C17.5982 15.8397 18.0795 16.8413 18.8689 17.5631C18.3994 17.0448 18.068 16.4153 17.9055 15.7331Z" fill="#FFFF00"/>
<path id="Vector_46" d="M4.19016 29.7432C4.69361 28.9892 5.37343 28.3715 6.16976 27.9444C6.96608 27.5172 7.85448 27.2938 8.75672 27.2938H25.0839C25.9586 27.2938 26.7849 26.965 27.3295 26.3572C28.643 24.8913 28.0331 22.9588 27.8907 22.7967C27.949 23.1524 27.9765 23.5124 27.9729 23.8729C27.9638 24.7112 27.6262 25.512 27.0336 26.1008C26.441 26.6897 25.6413 27.0189 24.8088 27.0168H8.48159C7.57935 27.0168 6.69095 27.2402 5.89462 27.6673C5.0983 28.0944 4.41848 28.7121 3.91503 29.4661L0 35.3291H0.46018L4.19016 29.7432Z" fill="#FFFF00"/>
</g>
</g>
</g>
<defs>
<linearGradient id="paint0_linear_2883_6129" x1="109.188" y1="0.460432" x2="109.188" y2="27.6005" gradientUnits="userSpaceOnUse">
<stop stop-color="#73B638"/>
<stop offset="1" stop-color="#009747"/>
</linearGradient>
<linearGradient id="paint1_linear_2883_6129" x1="49.6107" y1="14.0305" x2="49.6107" y2="5.52047" gradientUnits="userSpaceOnUse">
<stop stop-color="#ED781E" stop-opacity="0"/>
<stop offset="0.125" stop-color="#ED781E" stop-opacity="0.127"/>
<stop offset="1" stop-color="#ED781E"/>
</linearGradient>
<linearGradient id="paint2_linear_2883_6129" x1="36.1642" y1="10.9806" x2="45.9183" y2="16.062" gradientUnits="userSpaceOnUse">
<stop stop-color="#012F44"/>
<stop offset="1" stop-color="#012F44" stop-opacity="0"/>
</linearGradient>
<linearGradient id="paint3_linear_2883_6129" x1="46.7947" y1="-3.25268" x2="46.7947" y2="41.8411" gradientUnits="userSpaceOnUse">
<stop stop-color="#009747"/>
<stop offset="0.344" stop-color="#73B638"/>
<stop offset="0.413" stop-color="#70B538"/>
<stop offset="0.474" stop-color="#65B23A"/>
<stop offset="0.53" stop-color="#53AD3C"/>
<stop offset="0.585" stop-color="#3AA73F"/>
<stop offset="0.638" stop-color="#1A9E44"/>
<stop offset="0.673" stop-color="#009747"/>
<stop offset="0.815" stop-color="#38A640"/>
<stop offset="0.937" stop-color="#63B23A"/>
<stop offset="1" stop-color="#73B638"/>
</linearGradient>
<linearGradient id="paint4_linear_2883_6129" x1="62.7624" y1="20.7871" x2="48.0629" y2="17.0499" gradientUnits="userSpaceOnUse">
<stop stop-color="#012F44"/>
<stop offset="1" stop-color="#012F44" stop-opacity="0"/>
</linearGradient>
<linearGradient id="paint5_linear_2883_6129" x1="52.1805" y1="-5.52815" x2="52.1805" y2="35.425" gradientUnits="userSpaceOnUse">
<stop stop-color="#009747"/>
<stop offset="0.344" stop-color="#73B638"/>
<stop offset="0.438" stop-color="#70B538"/>
<stop offset="0.52" stop-color="#65B23A"/>
<stop offset="0.598" stop-color="#53AD3C"/>
<stop offset="0.672" stop-color="#3AA73F"/>
<stop offset="0.744" stop-color="#1A9E44"/>
<stop offset="0.792" stop-color="#009747"/>
<stop offset="0.882" stop-color="#38A640"/>
<stop offset="0.96" stop-color="#63B23A"/>
<stop offset="1" stop-color="#73B638"/>
</linearGradient>
<linearGradient id="paint6_linear_2883_6129" x1="38.0458" y1="11.7269" x2="48.2174" y2="17.0257" gradientUnits="userSpaceOnUse">
<stop stop-color="#012F44"/>
<stop offset="1" stop-color="#012F44" stop-opacity="0"/>
</linearGradient>
<linearGradient id="paint7_linear_2883_6129" x1="49.391" y1="17.8588" x2="49.391" y2="10.6698" gradientUnits="userSpaceOnUse">
<stop stop-color="#ED781E" stop-opacity="0"/>
<stop offset="0.125" stop-color="#ED781E" stop-opacity="0.127"/>
<stop offset="1" stop-color="#ED781E"/>
</linearGradient>
<linearGradient id="paint8_linear_2883_6129" x1="39.4223" y1="15.5949" x2="76.6088" y2="-0.49157" gradientUnits="userSpaceOnUse">
<stop stop-color="#012F44"/>
<stop offset="1" stop-color="#012F44" stop-opacity="0"/>
</linearGradient>
<linearGradient id="paint9_linear_2883_6129" x1="59.7544" y1="12.6818" x2="39.7463" y2="39.3867" gradientUnits="userSpaceOnUse">
<stop stop-color="#012F44"/>
<stop offset="1" stop-color="#012F44" stop-opacity="0"/>
</linearGradient>
<linearGradient id="paint10_linear_2883_6129" x1="30.0774" y1="22.2757" x2="41.5004" y2="25.3797" gradientUnits="userSpaceOnUse">
<stop stop-color="#012F44"/>
<stop offset="0.41" stop-color="#012F44" stop-opacity="0.488"/>
<stop offset="0.776" stop-color="#012F44" stop-opacity="0.131"/>
<stop offset="1" stop-color="#012F44" stop-opacity="0"/>
</linearGradient>
<linearGradient id="paint11_linear_2883_6129" x1="14.0172" y1="3.08434" x2="26.8834" y2="11.7517" gradientUnits="userSpaceOnUse">
<stop stop-color="#73B638"/>
<stop offset="1" stop-color="#009747"/>
</linearGradient>
<linearGradient id="paint12_linear_2883_6129" x1="31.0395" y1="3.41427" x2="-1.11972" y2="57.8377" gradientUnits="userSpaceOnUse">
<stop stop-color="#85D238"/>
<stop offset="0.388" stop-color="#73B638"/>
<stop offset="0.481" stop-color="#6BB439"/>
<stop offset="0.628" stop-color="#54AE3C"/>
<stop offset="0.811" stop-color="#2EA341"/>
<stop offset="1" stop-color="#009747"/>
</linearGradient>
<linearGradient id="paint13_linear_2883_6129" x1="18.1137" y1="8.4785" x2="18.1137" y2="35.208" gradientUnits="userSpaceOnUse">
<stop stop-color="#009747"/>
<stop offset="0.344" stop-color="#73B638"/>
<stop offset="0.413" stop-color="#70B538"/>
<stop offset="0.474" stop-color="#65B23A"/>
<stop offset="0.53" stop-color="#53AD3C"/>
<stop offset="0.585" stop-color="#3AA73F"/>
<stop offset="0.638" stop-color="#1A9E44"/>
<stop offset="0.673" stop-color="#009747"/>
<stop offset="0.815" stop-color="#38A640"/>
<stop offset="0.937" stop-color="#63B23A"/>
<stop offset="1" stop-color="#73B638"/>
</linearGradient>
<linearGradient id="paint14_linear_2883_6129" x1="29.756" y1="12.9753" x2="24.9246" y2="24.0026" gradientUnits="userSpaceOnUse">
<stop stop-color="#012F44"/>
<stop offset="1" stop-color="#012F44" stop-opacity="0"/>
</linearGradient>
</defs>
</svg>
